# xmcd
#
# Track frame offsets:
#	150
#	16129
#	28401
#	44107
#	61272
#	67020
#	76935
#	90250
#	102820
#	116145
#	125577
#	137454
#	146021
#	155666
#	164206
#	173992
#
# Disc length: 2539 seconds
#
# Revision: 0
# Processed by: cddbd v1.5.2PL0 Copyright (c) Steve Scherf et al.
# Submitted via: EZCDAudioConverter 3.0.8.1
#
DISCID=e409e910
DTITLE=INTERPRETES VARIOS - CANCIONES DE MARIA ELENA WALSH
DYEAR=2015
DGENRE=NIÑOS
TTITLE0=LA TORTUGA MANUELITA
TTITLE1=EL REINO DEL REVES
TTITLE2=MARCHA DE OSIAS
TTITLE3=TWIST DEL MONO LISO
TTITLE4=LE REINA BATATA
TTITLE5=LA VACA ESTUDIOSA
TTITLE6=LA CANCION DE LA VACUNA
TTITLE7=LA MONA JACINTA
TTITLE8=LA PAJARA PINTA
TTITLE9=CANCION DE TOMAR EL TE
TTITLE10=CHACARERA DE LOS GATOS (MICHI MICHI MIAU)
TTITLE11=EN EL PAIS DE NOMEACUERDO
TTITLE12=ADIVINA ADIVINADOR
TTITLE13=CANCION DE TITERES
TTITLE14=CANCION DEL JACARANDA
TTITLE15=COMO LA CICARRA
EXTD=
EXTT0=
EXTT1=
EXTT2=
EXTT3=
EXTT4=
EXTT5=
EXTT6=
EXTT7=
EXTT8=
EXTT9=
EXTT10=
EXTT11=
EXTT12=
EXTT13=
EXTT14=
EXTT15=
PLAYORDER=
